<?xml version="1.0" encoding="UTF-8" standalone="no"?><!DOCTYPE svg PUBLIC "-//W3C//DTD SVG 1.1//EN" "http://www.w3.org/Graphics/SVG/1.1/DTD/svg11.dtd"><svg width="100%" height="100%" viewBox="0 0 120 120" version="1.1" xmlns="http://www.w3.org/2000/svg" xmlns:xlink="http://www.w3.org/1999/xlink" xml:space="preserve" xmlns:serif="http://www.serif.com/" style="fill-rule:evenodd;clip-rule:evenodd;stroke-linejoin:round;stroke-miterlimit:2;"><path d="M1.818,70.797c-0.647,-3.501 -0.985,-7.11 -0.985,-10.797c0,-32.655 26.512,-59.167 59.167,-59.167c32.655,0 59.167,26.512 59.167,59.167c-0,2.831 -0.199,5.616 -0.585,8.342c-8.358,1.622 -24.774,4.706 -42.031,4.112c-12.119,-0.418 -25.743,-3.402 -41.946,-3.628c-11.768,-0.164 -23.527,0.786 -32.788,1.972Zm30.887,-7.964c12.165,0 18.048,0.813 29.378,2.171c6.502,0.78 9.693,1.162 15.666,1.348c2.248,-16.52 8.643,-16.677 16.132,-19.842c2.998,-1.267 5.416,-3.032 7.364,-6.299c1.948,-3.266 1.431,-3.977 -0.748,-4.454c-1.439,-0.315 -3.883,-1.607 -4.992,-2.412c-10.631,-7.723 -24.755,-3.239 -31.149,2.174c-3.187,2.698 -6.638,5.884 -3.715,5.46l2.45,-0.356c0,0 -1.672,2.604 -3.474,5.262c-3.672,5.418 -6.264,7.391 -24.367,10.231c-14.448,2.267 -24.128,7.852 -24.128,8.319c0,0.249 9.088,-1.603 21.583,-1.603Zm84.931,10.585c-0.419,1.806 -0.921,3.58 -1.502,5.318c-8.882,1.677 -23.847,4.166 -39.502,3.626c-12.119,-0.418 -25.743,-3.402 -41.946,-3.628c-10.713,-0.15 -21.419,0.624 -30.238,1.659c-0.582,-1.584 -1.099,-3.2 -1.546,-4.844c7.528,-0.859 18.59,-1.719 32.109,-1.592c16.891,0.159 26.911,2.766 42.363,3.435c16.077,0.697 31.646,-1.232 40.262,-3.975Zm-3.715,10.957c-9.295,20.51 -29.953,34.792 -53.921,34.792c-23.687,0 -44.141,-13.949 -53.589,-34.073c7.3,-0.72 17.087,-1.337 28.68,-1.227c16.891,0.159 26.911,2.766 42.363,3.435c13.937,0.604 27.492,-0.765 36.467,-2.927Z" style="fill:#ffffff;"/></svg>
