<?xml version="1.0" encoding="UTF-8" standalone="no"?>
<!DOCTYPE svg PUBLIC "-//W3C//DTD SVG 1.1//EN" "http://www.w3.org/Graphics/SVG/1.1/DTD/svg11.dtd">
<svg width="100%" height="100%" viewBox="0 0 1024 338" version="1.1" xmlns="http://www.w3.org/2000/svg" xmlns:xlink="http://www.w3.org/1999/xlink" xml:space="preserve" xmlns:serif="http://www.serif.com/" style="fill-rule:evenodd;clip-rule:evenodd;stroke-linejoin:round;stroke-miterlimit:2;">
    <g transform="matrix(5.693865,0,0,5.693865,-2327.565052,-926.572252)">
        <path d="M414.569,197.441C414.263,195.784 414.103,194.076 414.103,192.331C414.103,176.878 426.649,164.331 442.103,164.331C457.557,164.331 470.103,176.878 470.103,192.331C470.103,193.671 470.009,194.989 469.827,196.279C465.872,197.047 458.102,198.506 449.936,198.225C444.201,198.027 437.753,196.615 430.085,196.508C424.516,196.43 418.951,196.88 414.569,197.441ZM429.186,193.672C434.943,193.672 437.727,194.057 443.089,194.7C446.166,195.069 447.676,195.25 450.503,195.338C451.567,187.52 454.593,187.445 458.137,185.948C459.556,185.348 460.7,184.513 461.622,182.967C462.544,181.421 462.299,181.085 461.268,180.859C460.587,180.71 459.43,180.099 458.905,179.717C453.874,176.063 447.19,178.185 444.164,180.746C442.656,182.023 441.023,183.531 442.406,183.33L443.566,183.162C443.566,183.162 442.774,184.394 441.922,185.652C440.184,188.216 438.957,189.15 430.39,190.494C423.553,191.567 418.972,194.21 418.972,194.431C418.972,194.548 423.273,193.672 429.186,193.672ZM469.379,198.681C469.181,199.536 468.943,200.375 468.668,201.198C464.465,201.992 457.383,203.17 449.974,202.914C444.239,202.717 437.791,201.304 430.123,201.197C425.053,201.126 419.987,201.493 415.813,201.982C415.537,201.233 415.293,200.468 415.081,199.69C418.644,199.283 423.879,198.876 430.277,198.937C438.27,199.012 443.013,200.245 450.325,200.562C457.934,200.892 465.301,199.98 469.379,198.681ZM467.621,203.866C463.222,213.573 453.446,220.332 442.103,220.332C430.893,220.332 421.214,213.73 416.742,204.207C420.197,203.866 424.828,203.574 430.315,203.626C438.308,203.701 443.051,204.935 450.363,205.252C456.959,205.538 463.374,204.89 467.621,203.866Z" style="fill:rgb(255,255,255);"/>
    </g>
    <g transform="matrix(5.693865,0,0,5.693865,-2327.565052,-926.572252)">
        <path d="M486.932,214.708C483.673,214.708 481.176,213.904 479.441,212.296C477.705,210.687 476.838,208.085 476.838,204.487L476.838,188.997L472.509,188.997L472.509,181.697L476.838,181.697L476.838,175.031L485.408,174.142L485.408,181.697L492.085,181.697L492.085,188.997L485.408,188.997L485.408,204.043C485.408,206.074 486.297,207.09 488.074,207.09L491.629,207.09L491.629,214.708L486.932,214.708Z" style="fill:rgb(255,255,255);"/>
    </g>
    <g transform="matrix(5.693865,0,0,5.693865,-2327.565052,-926.572252)">
        <path d="M508.844,214.708C505.585,214.708 503.088,213.904 501.353,212.296C499.617,210.687 498.75,208.085 498.75,204.487L498.75,188.997L494.421,188.997L494.421,181.697L498.75,181.697L498.75,175.031L507.32,174.142L507.32,181.697L513.997,181.697L513.997,188.997L507.32,188.997L507.32,204.043C507.32,206.074 508.209,207.09 509.986,207.09L513.541,207.09L513.541,214.708L508.844,214.708Z" style="fill:rgb(255,255,255);"/>
    </g>
    <g transform="matrix(5.693865,0,0,5.693865,-2327.565052,-926.572252)">
        <path d="M517.16,214.708L517.16,181.697L525.476,181.697L525.476,187.982C526.026,185.612 527.148,183.802 528.841,182.554C530.534,181.305 532.819,180.766 535.697,180.935L535.697,188.997L534.491,188.997C532.036,188.997 529.962,189.78 528.269,191.346C526.577,192.912 525.73,195.071 525.73,197.822L525.73,214.708L517.16,214.708Z" style="fill:rgb(255,255,255);"/>
    </g>
    <g transform="matrix(5.693865,0,0,5.693865,-2327.565052,-926.572252)">
        <path d="M542.807,180.049C541.368,180.049 540.151,179.551 539.157,178.557C538.162,177.562 537.665,176.367 537.665,174.97C537.665,173.616 538.162,172.441 539.157,171.447C540.151,170.452 541.368,169.955 542.807,169.955C544.288,169.955 545.516,170.452 546.489,171.447C547.463,172.441 547.949,173.616 547.949,174.97C547.949,176.409 547.463,177.615 546.489,178.589C545.516,179.562 544.288,180.049 542.807,180.049Z" style="fill:rgb(255,255,255);"/>
    </g>
    <g transform="matrix(5.693865,0,0,5.693865,-2327.565052,-926.572252)">
        <rect x="538.554" y="181.697" width="8.57" height="33.011" style="fill:rgb(255,255,255);"/>
    </g>
    <g transform="matrix(5.693865,0,0,5.693865,-2327.565052,-926.572252)">
        <path d="M552.203,214.708L552.203,181.697L560.646,181.697L560.646,186.521C562.381,182.797 565.746,180.935 570.74,180.935C573.11,180.935 575.247,181.485 577.152,182.586C579.056,183.686 580.558,185.252 581.659,187.283C582.759,189.315 583.309,191.727 583.309,194.52L583.309,214.708L574.739,214.708L574.739,196.615C574.739,193.737 574.083,191.653 572.771,190.362C571.459,189.071 569.745,188.426 567.629,188.426C565.809,188.426 564.212,189.071 562.836,190.362C561.461,191.653 560.773,193.737 560.773,196.615L560.773,214.708L552.203,214.708Z" style="fill:rgb(255,255,255);"/>
    </g>
</svg>
